<svg id="outlines" xmlns="http://www.w3.org/2000/svg" viewBox="0 0 143.42 143.42"><defs><style>.cls-1{fill:#009620;}</style></defs><path d="M36.28,133.34C14.35,133.34,0,117.21,0,83.9,0,41.84,21.29,10.43,50,10.43c5.48,0,11-1,18,0C82.47,12.5,84,34.89,84,59.87,84,101.93,65,133.34,36.28,133.34Zm9.1-97.16C30.75,36.18,22,66.8,22,94.82c0,15.81,4.2,24.61,13.62,24.61C50.26,119.43,59,88.81,59,60.8,59,45,54.8,36.18,45.38,36.18Z"/><path d="M138.91,40.43H98.15L95,59.83h29.9V90.27H90.32l-6.76,43.07H47.78L67.18,10.53h76.36Z"/><path d="M90.2,90.36l-6.77,43.07H47.66l6.88-43.61Zm-35.66-.54,12.52-79.2h76.36l-4.63,29.9H98l-3.21,19.4h29.91V90.36"/><polygon class="cls-1" points="46.42 89.73 63.31 133.34 32.53 133.34 15.77 90.27 46.42 89.73"/><path class="cls-1" d="M83.78,133m-37.08.42L66.41,10.19l36.29.24L98.38,40.09l-3.21,19.4L83.7,133.43"/></svg>