<?xml version="1.0" encoding="utf-8"?>
<!-- Generator: Adobe Illustrator 24.2.3, SVG Export Plug-In . SVG Version: 6.00 Build 0)  -->
<svg version="1.1" xmlns="http://www.w3.org/2000/svg" xmlns:xlink="http://www.w3.org/1999/xlink" x="0px" y="0px"
	 viewBox="0 0 685.7 127.5" style="enable-background:new 0 0 685.7 127.5;" xml:space="preserve">
<style type="text/css">
	.st0{display:none;}
	.st1{display:inline;}
	.st2{font-family:'WhitneyHTF-BlackItalicSC';}
	.st3{font-size:178px;}
	.st4{fill:#009620;}
</style>
<g id="text" class="st0">
	<text transform="matrix(1 0 0 1 232.5244 63.51)" class="st1"><tspan x="0" y="0" class="st2 st3">One </tspan><tspan x="0" y="213.6" class="st2 st3">Fact</tspan></text>
</g>
<g id="outlines">
	<g>
		<path d="M48.6,127.4C19.2,127.4,0,110.7,0,76.2C0,32.6,25.5,0,63.9,0c29.4,0,48.6,16.7,48.6,51.3C112.5,94.9,87,127.4,48.6,127.4z
			 M61.4,26.7c-15.5,0-24.7,27.2-24.7,52.2c0,14.1,4.4,21.9,14.4,21.9c15.5,0,24.7-27.2,24.7-52.2C75.8,34.5,71.4,26.7,61.4,26.7z"
			/>
		<path d="M173,127.4l-22.6-48.2l-7.7,48.2h-27.2L130.3,34h28.1l20.6,44.1L186,34h27.2l-14.8,93.4H173z"/>
		<path d="M214.3,127.4L229.1,34h65.3L291,56.2h-35.6l-2.1,13.2h25.8v21.9h-29.4l-2.1,13.9h36.7l-3.6,22.2H214.3z"/>
		<path d="M437,34.5h-40.8l-3.2,19.4H423v30.4h-34.5l-6.8,43.1h-35.8L365.3,4.6h76.4L437,34.5z"/>
		<path d="M446.7,126.2h-29.5L462,32.4h39.7l14.2,89.9l-29.7,5.2l-2-17.6h-30.6L446.7,126.2z M478.2,53.8h-0.7l-14.6,34.2h19
			L478.2,53.8z"/>
		<path d="M564.7,127.4c-24.6,0-40.6-13.5-40.6-39.9c0-33.3,21-56.8,51.1-56.8c10.9,0,20.3,2.3,26.3,5.7l-7.8,26.2
			c-3.9-3.4-10.5-6.2-16.6-6.2c-12.6,0-21.5,11.4-21.5,28.1c0,12.3,7.5,17.4,15.8,17.4c6.9,0,11.7-1.8,18.2-4.8v25.1
			C581.9,125.7,574.6,127.4,564.7,127.4z"/>
		<path d="M660.6,59.8l-10.7,67.6h-31.7l10.7-67.6h-23.5l4.1-25.8h76.2v25.8H660.6z"/>
		<path d="M388.3,84.5l-6.8,43.1h-35.8l6.9-43.6L388.3,84.5z M352.7,83.9l12.5-79.2h76.4l-4.6,29.9h-40.8L393,54h29.9v30.4"/>
		<path d="M362,103"/>
		<path d="M326.4,102.5"/>
		<g>
			<polygon class="st4" points="344.5,83.8 361.4,127.4 330.7,127.4 313.9,84.4 			"/>
			<path class="st4" d="M381.9,127.1 M344.8,127.5L364.5,4.3l36.3,0.2l-4.3,29.7l-3.2,19.4l-11.5,73.9"/>
		</g>
	</g>
</g>
</svg>
