<svg id="outlines" xmlns="http://www.w3.org/2000/svg" viewBox="0 0 685.7 127.53"><defs><style>.cls-1{fill:#009620;}</style></defs><path d="M48.59,127.44C19.22,127.44,0,110.71,0,76.18,0,32.57,25.45,0,63.9,0c29.37,0,48.59,16.73,48.59,51.26C112.49,94.87,87,127.44,48.59,127.44ZM61.41,26.7c-15.49,0-24.74,27.23-24.74,52.15,0,14.06,4.45,21.89,14.41,21.89,15.49,0,24.75-27.23,24.75-52.15C75.83,34.53,71.38,26.7,61.41,26.7Z"/><path d="M173,127.44l-22.6-48.23-7.66,48.23H115.52L130.29,34h28.13l20.64,44.14L186,34h27.23l-14.77,93.44Z"/><path d="M214.31,127.44,229.08,34h65.33L291,56.25H255.43l-2.14,13.17H279.1V91.31H249.73l-2.14,13.88h36.67l-3.56,22.25Z"/><path d="M437,34.53H396.28l-3.21,19.4H423V84.37H388.45l-6.77,43.07H345.91L365.31,4.63h76.36Z"/><path d="M446.65,126.2H417.11L462,32.39h39.69l14.24,89.89-29.72,5.16-2-17.62H453.6Zm31.51-72.45h-.71l-14.6,34.18h19Z"/><path d="M564.67,127.44c-24.57,0-40.59-13.52-40.59-39.87,0-33.28,21-56.78,51.09-56.78,10.85,0,20.29,2.32,26.34,5.7l-7.83,26.16a27.34,27.34,0,0,0-16.55-6.23c-12.64,0-21.54,11.4-21.54,28.13,0,12.28,7.47,17.44,15.84,17.44,6.94,0,11.75-1.78,18.15-4.81v25.1A57.68,57.68,0,0,1,564.67,127.44Z"/><path d="M660.61,59.81l-10.68,67.63H618.24l10.68-67.63H605.43L609.52,34H685.7V59.81Z"/><path d="M388.32,84.46l-6.76,43.07H345.78l6.89-43.61Zm-35.65-.54,12.52-79.2h76.35l-4.62,29.9H396.16L393,54h29.91V84.46"/><polygon class="cls-1" points="344.55 83.83 361.44 127.44 330.66 127.44 313.9 84.37 344.55 83.83"/><path class="cls-1" d="M381.91,127.11m-37.08.42L364.53,4.29l36.3.24L396.5,34.19,393.3,53.6l-11.47,73.93"/></svg>